# Blender v2.78 (sub 0) OBJ File: 'chimney.blend'
# www.blender.org
mtllib chimney.mtl
o Cube.003_Cube.006
v -0.722131 2.475371 0.734717
v -0.722131 2.892823 0.734717
v -0.722131 2.475371 0.694718
v -0.722131 2.892823 0.694718
v -0.682131 2.475371 0.734717
v -0.682131 2.892823 0.734717
v -0.682131 2.475371 0.694718
v -0.682131 2.892823 0.694718
v -0.722131 2.476381 -0.694267
v -0.722131 2.892523 -0.694267
v -0.722131 2.476381 -0.734267
v -0.722131 2.892523 -0.734267
v -0.682131 2.476381 -0.694267
v -0.682131 2.892523 -0.694267
v -0.682131 2.476381 -0.734267
v -0.682131 2.892523 -0.734267
v 0.769243 2.892584 0.746090
v 0.769243 3.212584 0.746090
v 0.769243 2.892584 -0.753910
v 0.769243 3.212584 -0.753910
v -0.730757 2.892585 0.746089
v -0.730757 3.212584 0.746089
v -0.730757 2.892585 -0.753911
v -0.730757 3.212584 -0.753911
v 0.769243 3.212584 -0.753910
v -0.730757 3.212584 -0.753911
v -0.555971 3.122705 -0.569549
v -0.556780 3.122813 0.563409
v 0.595133 3.123023 0.564574
v -0.650798 2.893097 0.659685
v -0.650798 2.892052 -0.663859
v 0.683448 2.892034 -0.662651
v 0.681161 2.893306 0.660850
v 0.600046 3.121775 -0.568415
v -0.868206 -1.594355 -0.590679
v 0.499979 -1.594193 0.774717
v -0.749184 2.476273 -0.752096
v -0.749184 2.476273 0.747904
v 0.750986 2.475323 0.747541
v 0.506687 -1.594962 -0.589609
v 0.753331 2.475110 -0.748935
v 0.697844 2.475909 -0.681773
v 0.691136 2.476679 0.682553
v -0.677048 2.476516 -0.682843
v 1.000000 -2.400000 -1.000000
v 1.000000 -2.400000 1.000000
v -1.000000 -2.400000 1.000000
v -1.000000 -2.400000 -1.000000
v 1.000000 2.400000 -0.999999
v 0.999999 2.400000 1.000001
v -1.000000 2.400000 1.000000
v -1.000000 2.400000 -1.000000
v 0.826228 2.113122 -0.813361
v 0.830734 2.107917 0.838330
v -0.817897 2.114053 0.857521
v -0.811144 2.115757 -0.793456
v 1.000000 0.911035 -1.000000
v 1.000000 0.911035 1.000000
v -1.000000 0.911035 1.000000
v -1.000000 0.911035 -1.000000
v 1.000000 2.119359 -0.999999
v -1.000000 2.119359 -1.000000
v -1.000000 2.119359 1.000000
v 0.999999 2.119359 1.000001
v 0.751934 2.400000 0.746090
v -0.748066 2.400000 0.746089
v -0.868206 -1.596149 0.775080
v -0.748066 2.400000 -0.753911
v 0.751934 2.400000 -0.751934
v -0.677048 2.474723 0.682916
v 0.699174 2.475818 -0.694267
v 0.699174 2.892718 -0.694267
v 0.699174 2.475818 -0.734267
v 0.699174 2.892718 -0.734267
v 0.739174 2.475818 -0.694267
v 0.739174 2.892718 -0.694267
v 0.739174 2.475818 -0.734267
v 0.739174 2.892718 -0.734267
v 0.697156 2.475988 0.731509
v 0.697156 2.893400 0.731509
v 0.697156 2.475988 0.691509
v 0.697156 2.893155 0.691509
v 0.737156 2.475988 0.731509
v 0.737156 2.893006 0.731509
v 0.737156 2.475988 0.691509
v 0.737156 2.892875 0.691509
vt 0.8389 0.0635
vt 0.8389 0.1299
vt 0.8135 0.1299
vt 0.8135 0.0635
vt 0.8389 0.1299
vt 0.8135 0.0635
vt 0.8389 0.0635
vt 0.8135 0.1299
vt 0.8389 0.0635
vt 0.8389 0.1299
vt 0.8135 0.0635
vt 0.8135 0.1299
vt 0.8389 0.1299
vt 0.8135 0.1299
vt 0.8135 0.0635
vt 0.8389 0.0635
vt 0.8389 0.1299
vt 0.8135 0.1299
vt 0.8135 0.0635
vt 0.8389 0.0635
vt 0.8389 0.1299
vt 0.8135 0.1299
vt 0.8135 0.0635
vt 0.8389 0.0635
vt 0.5332 0.8408
vt 0.8076 0.8408
vt 0.8076 0.9990
vt 0.5332 0.9990
vt 0.5332 0.8408
vt 0.8076 0.8408
vt 0.8076 0.9990
vt 0.5332 0.9990
vt 0.8076 0.8408
vt 0.8076 0.9990
vt 0.5332 0.9990
vt 0.5332 0.8408
vt 0.8076 0.9990
vt 0.5332 0.9990
vt 0.8086 0.8408
vt 0.9990 0.8408
vt 0.9990 0.9990
vt 0.8086 0.9990
vt 0.5312 0.0635
vt 0.8125 0.0635
vt 0.8125 0.3721
vt 0.5312 0.3721
vt 0.5312 0.0635
vt 0.8125 0.0635
vt 0.8125 0.3721
vt 0.5312 0.3721
vt 0.8125 0.0635
vt 0.8125 0.3721
vt 0.5312 0.0635
vt 0.5312 0.3721
vt 0.5312 0.3730
vt 0.8125 0.3730
vt 0.8125 0.6270
vt 0.5312 0.6270
vt 0.5312 0.3730
vt 0.5312 0.6270
vt 0.5312 0.3730
vt 0.8125 0.3730
vt 0.8125 0.6270
vt 0.5312 0.6270
vt 0.8125 0.3730
vt 0.8125 0.6270
vt 0.5312 0.6270
vt 0.5332 0.6279
vt 0.8125 0.6279
vt 0.8125 0.8398
vt 0.5332 0.8398
vt 0.2217 0.6260
vt 0.4980 0.6260
vt 0.4980 0.9990
vt 0.2217 0.9990
vt 0.2217 0.6260
vt 0.4980 0.6260
vt 0.4980 0.9990
vt 0.2217 0.9990
vt 0.2217 0.6250
vt 0.2217 0.4092
vt 0.2520 0.4092
vt 0.2520 0.6250
vt 0.2520 0.4092
vt 0.2520 0.6250
vt 0.2217 0.6250
vt 0.2217 0.4092
vt 0.2520 0.4092
vt 0.2520 0.6250
vt 0.2217 0.6250
vt 0.2217 0.4092
vt 0.2217 0.6250
vt 0.2217 0.4092
vt 0.2520 0.4092
vt 0.2520 0.6250
vt 0.2520 0.6250
vt 0.2217 0.6152
vt 0.2217 0.4170
vt 0.2217 0.6260
vt 0.4980 0.6260
vt 0.4980 0.9990
vt 0.2217 0.9990
vt 0.2217 0.6250
vt 0.2217 0.4102
vt 0.2520 0.4189
vt 0.2520 0.6123
vt 0.2520 0.4092
vt 0.2217 0.6113
vt 0.2217 0.4180
vt 0.4980 0.9990
vt 0.2217 0.9990
vt 0.2217 0.6260
vt 0.4980 0.6260
vt 0.2208 0.2207
vt 0.0010 0.2207
vt 0.0010 0.0010
vt 0.2207 0.0010
vt 0.4355 0.3438
vt 0.4131 0.4082
vt 0.2500 0.4082
vt 0.2217 0.3438
vt 0.4980 0.3135
vt 0.4980 0.3428
vt 0.2217 0.3428
vt 0.2217 0.3135
vt 0.4980 0.3135
vt 0.4980 0.3428
vt 0.2217 0.3428
vt 0.2217 0.3135
vt 0.2217 0.3428
vt 0.2217 0.3135
vt 0.4980 0.3135
vt 0.4980 0.3428
vt 0.2207 0.2217
vt 0.2207 0.5596
vt 0.0010 0.5596
vt 0.0010 0.2217
vt 0.4980 0.3135
vt 0.4980 0.3428
vt 0.2217 0.3428
vt 0.2217 0.3135
vt 0.2461 0.2109
vt 0.2725 0.0107
vt 0.4453 0.0127
vt 0.4619 0.2061
vt 0.4980 0.0010
vt 0.4893 0.2168
vt 0.2451 0.2129
vt 0.2227 0.0029
vt 0.4981 0.0010
vt 0.4736 0.2119
vt 0.2451 0.2109
vt 0.2227 0.0068
vt 0.2207 0.9072
vt 0.0010 0.9072
vt 0.0010 0.5606
vt 0.2207 0.5605
vt 0.0010 0.5596
vt 0.0010 0.2217
vt 0.2207 0.2217
vt 0.2207 0.5596
vt 0.0010 0.5596
vt 0.0010 0.2217
vt 0.2207 0.2217
vt 0.2207 0.5596
vt 0.4561 0.0088
vt 0.4678 0.2070
vt 0.2471 0.2090
vt 0.2793 0.0010
vt 0.2402 0.2969
vt 0.2266 0.2207
vt 0.4941 0.2207
vt 0.4561 0.3018
vt 0.2529 0.2998
vt 0.2217 0.2188
vt 0.4981 0.2188
vt 0.4814 0.3027
vt 0.4658 0.2295
vt 0.4873 0.2949
vt 0.2334 0.2988
vt 0.2578 0.2285
vt 0.4746 0.2256
vt 0.4981 0.3125
vt 0.2246 0.3076
vt 0.2500 0.2256
vt 0.4355 0.3135
vt 0.2510 0.4082
vt 0.2217 0.4092
vt 0.2520 0.4180
vt 0.2520 0.6123
vt 0.4346 0.4092
vt 0.4346 0.6250
vt 0.2529 0.6250
vt 0.2529 0.4092
vt 0.8389 0.1299
vt 0.8135 0.1299
vt 0.8135 0.0635
vt 0.8389 0.0635
vt 0.8135 0.1299
vt 0.8389 0.0635
vt 0.8389 0.1299
vt 0.8135 0.0635
vt 0.8389 0.1299
vt 0.8135 0.1299
vt 0.8389 0.0635
vt 0.8135 0.0635
vt 0.8389 0.1299
vt 0.8135 0.1299
vt 0.8135 0.0635
vt 0.8389 0.0635
vt 0.8135 0.1299
vt 0.8389 0.0635
vt 0.8389 0.1299
vt 0.8389 0.0635
vt 0.8135 0.0635
vt 0.8135 0.1299
vt 0.8389 0.1299
vt 0.8389 0.0635
vt 0.8389 0.1299
vt 0.8135 0.0635
vt 0.4355 0.4082
vt 0.2217 0.4082
vt 0.2412 0.3438
vt 0.4023 0.3438
vt 0.2217 0.4082
vt 0.4121 0.3438
vt 0.2529 0.3438
vn -1.0000 0.0000 0.0000
vn 0.0000 0.0000 -1.0000
vn 1.0000 0.0000 0.0000
vn 0.0000 0.0000 1.0000
vn -0.0000 -1.0000 0.0000
vn 0.0001 1.0000 -0.0004
vn 0.0000 1.0000 0.0060
vn -0.0010 -1.0000 0.0004
vn 0.0001 -1.0000 -0.0072
vn 0.0009 -0.3865 -0.9223
vn -0.9252 0.3795 -0.0005
vn 0.0010 0.3790 -0.9254
vn 0.9382 0.3460 0.0024
vn 0.0003 1.0000 -0.0006
vn -0.0002 -0.0226 -0.9997
vn -0.9989 0.0468 -0.0049
vn -0.9999 -0.0147 0.0000
vn 0.0017 0.0318 -0.9995
vn 1.0000 -0.0030 0.0008
vn 0.0001 -0.0215 0.9998
vn 0.0187 0.9998 -0.0003
vn 0.9989 -0.0469 -0.0001
vn -0.0004 1.0000 -0.0015
vn 0.0006 1.0000 -0.0077
vn -0.0008 0.0227 0.9997
vn 0.0000 1.0000 0.0000
vn -0.9883 0.1523 -0.0018
vn 0.0054 0.1257 0.9921
vn 0.9899 0.1416 -0.0010
vn -0.0053 0.1613 -0.9869
vn -0.0009 -0.9997 -0.0250
vn -0.0239 -0.9997 -0.0005
vn -0.0014 -0.9985 0.0549
vn 0.0514 -0.9987 -0.0015
vn 0.0090 1.0000 0.0006
vn -0.0005 1.0000 0.0004
usemtl Material.001
s off
f 1/1/1 2/2/1 4/3/1 3/4/1
f 3/5/2 4/3/2 8/6/2 7/7/2
f 7/8/3 8/6/3 6/9/3 5/10/3
f 5/11/4 6/9/4 2/2/4 1/12/4
f 9/13/1 10/14/1 12/15/1 11/16/1
f 11/16/2 12/17/2 16/18/2 15/19/2
f 15/19/3 16/20/3 14/21/3 13/22/3
f 13/22/4 14/23/4 10/24/4 9/13/4
f 17/25/4 18/26/4 22/27/4 21/28/4
f 26/29/4 23/30/4 19/31/4 25/32/4
f 26/29/3 22/33/3 21/34/3 23/35/3
f 25/36/3 18/26/3 17/37/3 19/38/3
f 26/39/5 25/40/5 18/41/5 22/42/5
f 23/43/6 21/44/6 30/45/6 31/46/6
f 19/47/7 23/48/7 31/49/7 32/50/7
f 19/47/8 17/51/8 33/52/8 32/50/8
f 17/53/9 21/44/9 30/45/9 33/54/9
f 33/55/10 30/56/10 28/57/10 29/58/10
f 31/59/11 30/56/11 28/57/11 27/60/11
f 32/61/12 31/62/12 27/63/12 34/64/12
f 32/61/13 34/65/13 29/66/13 33/67/13
f 28/68/14 29/69/14 34/70/14 27/71/14
f 70/72/15 43/73/15 36/74/15 67/75/15
f 43/76/16 42/77/16 40/78/16 36/79/16
f 68/80/17 66/81/17 38/82/17 37/83/17
f 69/84/18 68/85/18 37/86/18 41/87/18
f 65/88/19 69/89/19 41/90/19 39/91/19
f 66/92/20 65/93/20 39/94/20 38/95/20
f 39/94/21 41/96/21 42/97/21 43/98/21
f 44/99/22 70/100/22 67/101/22 35/102/22
f 38/103/23 39/104/23 43/105/23 70/106/23
f 41/107/24 37/83/24 44/108/24 42/109/24
f 42/110/25 44/111/25 35/112/25 40/113/25
f 45/114/5 46/115/5 47/116/5 48/117/5
f 49/118/26 69/119/26 65/120/26 50/121/26
f 61/122/3 49/123/3 50/124/3 64/125/3
f 64/126/4 50/127/4 51/128/4 63/129/4
f 63/130/1 51/131/1 52/132/1 62/133/1
f 57/134/2 45/135/2 48/136/2 60/137/2
f 49/138/2 61/139/2 62/140/2 52/141/2
f 59/142/27 55/143/27 56/144/27 60/145/27
f 58/146/28 54/147/28 55/148/28 59/149/28
f 57/150/29 53/151/29 54/152/29 58/153/29
f 45/154/3 57/155/3 58/156/3 46/157/3
f 46/158/4 58/159/4 59/160/4 47/161/4
f 47/162/1 59/163/1 60/164/1 48/165/1
f 53/166/30 57/167/30 60/168/30 56/169/30
f 56/170/31 62/171/31 61/172/31 53/173/31
f 55/174/32 63/175/32 62/176/32 56/177/32
f 54/178/33 64/179/33 63/180/33 55/181/33
f 53/182/34 61/183/34 64/184/34 54/185/34
f 49/186/26 52/141/26 68/187/26 69/119/26
f 37/86/35 38/188/35 70/189/35 44/190/35
f 36/191/36 40/192/36 35/193/36 67/194/36
f 71/195/1 72/196/1 74/197/1 73/198/1
f 73/199/2 74/197/2 78/200/2 77/201/2
f 77/202/3 78/200/3 76/203/3 75/204/3
f 75/205/4 76/203/4 72/196/4 71/206/4
f 79/207/1 80/208/1 82/209/1 81/210/1
f 81/211/2 82/209/2 86/212/2 85/213/2
f 85/214/3 86/215/3 84/216/3 83/217/3
f 83/218/4 84/219/4 80/208/4 79/220/4
f 51/221/26 50/222/26 65/223/26 66/224/26
f 52/225/26 51/221/26 66/226/26 68/227/26
l 20 19
l 24 23
l 25 20
l 24 26
